<svg width="287" height="287" viewBox="0 0 287 287" fill="none" xmlns="http://www.w3.org/2000/svg">
<circle cx="143.5" cy="143.5" r="96.9565" stroke="white" stroke-width="8"/>
<circle cx="143.5" cy="143.5" r="90.8529" stroke="white" stroke-width="4"/>
<circle cx="143.162" cy="143.838" r="110.774" stroke="white" stroke-width="4"/>
<circle cx="143.838" cy="143.838" r="135.26" stroke="white" stroke-width="5"/>
<circle cx="143.5" cy="143.5" r="139" stroke="white" stroke-width="9"/>
<path d="M82.3857 107.709L84.074 179.29L144.175 214.406L205.289 179.29V109.735L144.175 72.9316L82.3857 107.709Z" fill="white" stroke="white"/>
<line x1="81.6384" y1="107.422" x2="172.128" y2="55.4244" stroke="white" stroke-width="3"/>
<line x1="143.911" y1="72.9823" x2="233.049" y2="124.305" stroke="white" stroke-width="3"/>
<line x1="204.764" y1="108.703" x2="206.123" y2="210.672" stroke="white" stroke-width="3"/>
<line x1="205.366" y1="179.575" x2="115.552" y2="231.573" stroke="white" stroke-width="3"/>
<line x1="143.094" y1="214.695" x2="53.2796" y2="163.373" stroke="white" stroke-width="3"/>
<line x1="82.9119" y1="180.333" x2="80.886" y2="76.3376" stroke="white" stroke-width="3"/>
<path d="M154.816 143.906C155.909 144.671 156.921 145.355 157.85 145.956C158.834 146.503 159.681 147.104 160.392 147.76C161.813 149.072 162.524 150.685 162.524 152.598V166.538C162.524 168.998 161.649 170.884 159.9 172.196C158.424 173.399 156.483 174 154.078 174H127.92V158.83H133.824V168.424H155.964V152.434L134.48 139.232C132.567 138.139 130.981 137.018 129.724 135.87C128.521 134.667 127.92 133.055 127.92 131.032V120.7C127.92 117.475 128.685 115.261 130.216 114.058C131.528 113.019 133.797 112.5 137.022 112.5H161.786V127.67H155.882V118.076H134.48V131.196L154.816 143.906Z" fill="#8C8EB7"/>
</svg>
